G75*
G70*
%OFA0B0*%
%FSLAX24Y24*%
%IPPOS*%
%LPD*%
%AMOC8*
5,1,8,0,0,1.08239X$1,22.5*
%
%ADD10O,0.0600X0.1120*%
%ADD11OC8,0.0860*%
%ADD12O,0.0680X0.1280*%
%ADD13C,0.0480*%
D10*
X011363Y002439D03*
X012363Y002439D03*
X013363Y002439D03*
X014363Y002439D03*
X015363Y002439D03*
X016363Y002439D03*
X017363Y002439D03*
X018363Y002439D03*
X019363Y002439D03*
X019363Y005439D03*
X018363Y005439D03*
X017363Y005439D03*
X016363Y005439D03*
X015363Y005439D03*
X014363Y005439D03*
X013363Y005439D03*
X012363Y005439D03*
X011363Y005439D03*
D11*
X012183Y007399D03*
X016183Y007399D03*
X006643Y007479D03*
X002643Y007479D03*
D12*
X003143Y011299D03*
X004143Y011299D03*
X005143Y011299D03*
X006143Y011299D03*
X007143Y011299D03*
X008143Y011299D03*
X009143Y011299D03*
X010143Y011299D03*
X011143Y011299D03*
X012143Y011299D03*
X013143Y011299D03*
X014143Y011299D03*
X015143Y011299D03*
D13*
X005843Y003419D03*
X006963Y005179D03*
X005843Y006139D03*
X004563Y005659D03*
X003203Y006939D03*
X004403Y008539D03*
X004403Y009019D03*
X005603Y008139D03*
X007203Y009019D03*
X007203Y009819D03*
X009203Y010139D03*
X009763Y008539D03*
X009283Y008459D03*
X011443Y010059D03*
X011523Y010539D03*
X012323Y009659D03*
X012243Y009179D03*
X012243Y008699D03*
X013683Y009659D03*
X014163Y009579D03*
X013923Y008939D03*
X013923Y008459D03*
X014243Y007819D03*
X014243Y006699D03*
X012803Y006059D03*
X014483Y004619D03*
X013603Y004219D03*
X012163Y003739D03*
X011283Y003979D03*
X010483Y004379D03*
X010003Y004379D03*
X009683Y003979D03*
X009523Y004779D03*
X009843Y005179D03*
X009523Y006059D03*
X010643Y002859D03*
X015763Y004779D03*
X016483Y004619D03*
X017443Y004619D03*
X018323Y004459D03*
X016083Y003579D03*
X017523Y006299D03*
X018083Y007179D03*
X018803Y007339D03*
X016243Y009339D03*
X015763Y009339D03*
X016883Y009419D03*
X017363Y009899D03*
X018163Y010779D03*
X017043Y011259D03*
M02*
