G75*
G70*
%OFA0B0*%
%FSLAX24Y24*%
%IPPOS*%
%LPD*%
%AMOC8*
5,1,8,0,0,1.08239X$1,22.5*
%
%ADD10O,0.0520X0.1040*%
%ADD11OC8,0.0780*%
%ADD12O,0.0600X0.1200*%
%ADD13C,0.0100*%
%ADD14C,0.0400*%
D10*
X011363Y002439D03*
X012363Y002439D03*
X013363Y002439D03*
X014363Y002439D03*
X015363Y002439D03*
X016363Y002439D03*
X017363Y002439D03*
X018363Y002439D03*
X019363Y002439D03*
X019363Y005439D03*
X018363Y005439D03*
X017363Y005439D03*
X016363Y005439D03*
X015363Y005439D03*
X014363Y005439D03*
X013363Y005439D03*
X012363Y005439D03*
X011363Y005439D03*
D11*
X012183Y007399D03*
X016183Y007399D03*
X006643Y007479D03*
X002643Y007479D03*
D12*
X003143Y011299D03*
X004143Y011299D03*
X005143Y011299D03*
X006143Y011299D03*
X007143Y011299D03*
X008143Y011299D03*
X009143Y011299D03*
X010143Y011299D03*
X011143Y011299D03*
X012143Y011299D03*
X013143Y011299D03*
X014143Y011299D03*
X015143Y011299D03*
D13*
X007043Y001739D02*
X005443Y003339D01*
X005443Y005259D01*
X004003Y006699D01*
X004003Y009419D01*
X004483Y009419D01*
X004803Y009099D01*
X004803Y008939D01*
X005603Y008139D01*
X004883Y008539D02*
X004403Y009019D01*
X004403Y008539D02*
X004643Y008299D01*
X004643Y006859D01*
X007523Y003979D01*
X009683Y003979D01*
X010003Y004379D02*
X010243Y004619D01*
X010243Y008059D01*
X009763Y008539D01*
X009283Y008459D02*
X009283Y006299D01*
X009523Y006059D01*
X009843Y005179D02*
X008323Y006699D01*
X008323Y010779D01*
X008143Y011299D01*
X008643Y011819D02*
X008403Y012059D01*
X003283Y012059D01*
X003283Y011819D01*
X003143Y011299D01*
X003203Y010779D01*
X003203Y006939D01*
X003363Y006859D01*
X004563Y005659D01*
X005843Y006139D02*
X004883Y007099D01*
X004883Y008539D01*
X006643Y007479D02*
X006803Y007099D01*
X006803Y005339D01*
X006963Y005179D01*
X007603Y006699D02*
X007603Y010459D01*
X007283Y010779D01*
X007143Y011299D01*
X008643Y011819D02*
X008643Y010699D01*
X009203Y010139D01*
X010323Y010779D02*
X010143Y011299D01*
X010323Y010779D02*
X010483Y010619D01*
X010483Y004379D01*
X011283Y003979D02*
X011283Y004939D01*
X011363Y005439D01*
X012803Y005019D02*
X012803Y006059D01*
X011763Y007019D02*
X010963Y007819D01*
X010963Y010779D01*
X011143Y011299D01*
X010643Y010859D02*
X010643Y011819D01*
X010883Y012059D01*
X012003Y012059D01*
X012003Y011819D01*
X012143Y011299D01*
X011523Y010539D02*
X011843Y010219D01*
X011843Y009019D01*
X012083Y008779D01*
X012243Y008699D01*
X014243Y006699D01*
X014963Y007099D02*
X014963Y004219D01*
X016243Y002939D01*
X016363Y002439D01*
X016483Y001979D01*
X016483Y001739D01*
X017603Y001739D01*
X017923Y002059D01*
X017923Y007019D01*
X018083Y007179D01*
X018803Y007339D02*
X018803Y004939D01*
X018323Y004459D01*
X017443Y004619D02*
X017443Y002939D01*
X017363Y002439D01*
X018363Y002439D02*
X018483Y002939D01*
X019763Y004219D01*
X019763Y010379D01*
X018243Y011899D01*
X015283Y011899D01*
X015283Y011819D01*
X015143Y011299D01*
X014323Y010779D02*
X014143Y011299D01*
X014323Y010779D02*
X015283Y009819D01*
X015283Y008939D01*
X015763Y008939D01*
X016963Y007739D01*
X016963Y006859D01*
X017523Y006299D01*
X017203Y005899D02*
X017363Y005439D01*
X017203Y005899D02*
X016723Y006379D01*
X016723Y007659D01*
X015843Y008539D01*
X015043Y008539D01*
X015043Y009179D01*
X013363Y010859D01*
X013143Y011299D01*
X011603Y009899D02*
X011443Y010059D01*
X011603Y009899D02*
X011603Y008139D01*
X012003Y007739D01*
X012183Y007399D01*
X011763Y007019D02*
X011763Y003419D01*
X012243Y002939D01*
X012363Y002439D01*
X013123Y002779D02*
X013363Y002439D01*
X013123Y002779D02*
X012163Y003739D01*
X011283Y002939D02*
X011363Y002439D01*
X011283Y002939D02*
X010883Y003339D01*
X010883Y007579D01*
X010723Y007739D01*
X010723Y010779D01*
X010643Y010859D01*
X012323Y009659D02*
X013683Y009659D01*
X014163Y009579D02*
X014803Y008939D01*
X014803Y008379D01*
X015603Y007579D01*
X015603Y006139D01*
X015763Y005979D01*
X015763Y004779D01*
X016483Y004619D02*
X016483Y003979D01*
X016083Y003579D01*
X014483Y004619D02*
X013923Y004059D01*
X013923Y001739D01*
X007043Y001739D01*
X005843Y003419D02*
X010643Y003419D01*
X010643Y002859D01*
X009523Y004779D02*
X007603Y006699D01*
X007203Y009019D02*
X007203Y009819D01*
X012243Y009179D02*
X013523Y009179D01*
X013523Y008859D01*
X013923Y008459D01*
X013923Y008939D02*
X015203Y007659D01*
X015203Y005899D01*
X015363Y005439D01*
X013603Y004219D02*
X012803Y005019D01*
X014963Y007099D02*
X014243Y007819D01*
X015763Y009339D02*
X016643Y010219D01*
X016643Y011339D01*
X016963Y011659D01*
X018163Y011659D01*
X018163Y010779D01*
X017043Y011259D02*
X017043Y010139D01*
X016243Y009339D01*
X016883Y009419D02*
X016963Y009259D01*
X016963Y009179D01*
X018803Y007339D01*
X016883Y009419D02*
X017363Y009899D01*
D14*
X017363Y009899D03*
X016883Y009419D03*
X016243Y009339D03*
X015763Y009339D03*
X014163Y009579D03*
X013683Y009659D03*
X013923Y008939D03*
X013923Y008459D03*
X014243Y007819D03*
X014243Y006699D03*
X012803Y006059D03*
X014483Y004619D03*
X013603Y004219D03*
X012163Y003739D03*
X011283Y003979D03*
X010483Y004379D03*
X010003Y004379D03*
X009683Y003979D03*
X009523Y004779D03*
X009843Y005179D03*
X009523Y006059D03*
X006963Y005179D03*
X005843Y006139D03*
X004563Y005659D03*
X003203Y006939D03*
X004403Y008539D03*
X004403Y009019D03*
X005603Y008139D03*
X007203Y009019D03*
X007203Y009819D03*
X009203Y010139D03*
X009763Y008539D03*
X009283Y008459D03*
X011443Y010059D03*
X011523Y010539D03*
X012323Y009659D03*
X012243Y009179D03*
X012243Y008699D03*
X017043Y011259D03*
X018163Y010779D03*
X018803Y007339D03*
X018083Y007179D03*
X017523Y006299D03*
X015763Y004779D03*
X016483Y004619D03*
X017443Y004619D03*
X018323Y004459D03*
X016083Y003579D03*
X010643Y002859D03*
X005843Y003419D03*
M02*
