%
M48
M72
T01C0.0240
T02C0.0320
T03C0.0400
T04C0.0520
%
T01
X5843Y3419
X6963Y5179
X5843Y6139
X4563Y5659
X3203Y6939
X4403Y8539
X4403Y9019
X5603Y8139
X7203Y9019
X7203Y9819
X9203Y10139
X9763Y8539
X9283Y8459
X11443Y10059
X11523Y10539
X12323Y9659
X12243Y9179
X12243Y8699
X13683Y9659
X14163Y9579
X13923Y8939
X13923Y8459
X14243Y7819
X14243Y6699
X12803Y6059
X14483Y4619
X13603Y4219
X12163Y3739
X11283Y3979
X10483Y4379
X10003Y4379
X9683Y3979
X9523Y4779
X9843Y5179
X9523Y6059
X10643Y2859
X15763Y4779
X16483Y4619
X17443Y4619
X18323Y4459
X16083Y3579
X17523Y6299
X18083Y7179
X18803Y7339
X16243Y9339
X15763Y9339
X16883Y9419
X17363Y9899
X18163Y10779
X17043Y11259
T02
X17363Y5439
X16363Y5439
X15363Y5439
X14363Y5439
X13363Y5439
X12363Y5439
X11363Y5439
X11363Y2439
X12363Y2439
X13363Y2439
X14363Y2439
X15363Y2439
X16363Y2439
X17363Y2439
X18363Y2439
X19363Y2439
X19363Y5439
X18363Y5439
T03
X15143Y11299
X14143Y11299
X13143Y11299
X12143Y11299
X11143Y11299
X10143Y11299
X9143Y11299
X8143Y11299
X7143Y11299
X6143Y11299
X5143Y11299
X4143Y11299
X3143Y11299
T04
X2643Y7479
X6643Y7479
X12183Y7399
X16183Y7399
M30
