G75*
G70*
%OFA0B0*%
%FSLAX24Y24*%
%IPPOS*%
%LPD*%
%AMOC8*
5,1,8,0,0,1.08239X$1,22.5*
%
%ADD10C,0.0080*%
%ADD11R,0.0260X0.0300*%
%ADD12R,0.0260X0.0260*%
%ADD13C,0.0100*%
D10*
X000963Y002167D02*
X000963Y002237D01*
X001033Y002237D01*
X001033Y002167D01*
X000963Y002167D01*
X001033Y002397D02*
X001033Y002678D01*
X001033Y002538D02*
X000613Y002538D01*
X000753Y002397D01*
X000753Y002858D02*
X000963Y002858D01*
X001033Y002928D01*
X001033Y003138D01*
X000753Y003138D01*
X000823Y003318D02*
X000823Y003458D01*
X001033Y003318D02*
X000613Y003318D01*
X000613Y003598D01*
X000903Y004487D02*
X000903Y004557D01*
X000973Y004557D01*
X000973Y004487D01*
X000903Y004487D01*
X000973Y004717D02*
X000973Y004998D01*
X000973Y004858D02*
X000553Y004858D01*
X000693Y004717D01*
X000693Y005178D02*
X000903Y005178D01*
X000973Y005248D01*
X000973Y005458D01*
X000693Y005458D01*
X000763Y005638D02*
X000763Y005778D01*
X000973Y005638D02*
X000553Y005638D01*
X000553Y005918D01*
X000903Y006647D02*
X000903Y006717D01*
X000973Y006717D01*
X000973Y006647D01*
X000903Y006647D01*
X000973Y006877D02*
X000973Y007158D01*
X000973Y007018D02*
X000553Y007018D01*
X000693Y006877D01*
X000693Y007338D02*
X000903Y007338D01*
X000973Y007408D01*
X000973Y007618D01*
X000693Y007618D01*
X000763Y007798D02*
X000763Y007938D01*
X000973Y007798D02*
X000553Y007798D01*
X000553Y008078D01*
X001953Y008078D02*
X002023Y007938D01*
X002163Y007798D01*
X002163Y008008D01*
X002233Y008078D01*
X002303Y008078D01*
X002373Y008008D01*
X002373Y007868D01*
X002303Y007798D01*
X002163Y007798D01*
X002023Y007618D02*
X001953Y007548D01*
X001953Y007408D01*
X002023Y007338D01*
X002303Y007338D01*
X002373Y007408D01*
X002373Y007548D01*
X002303Y007618D01*
X003166Y006819D02*
X005961Y006819D01*
X005961Y001819D01*
X003166Y001819D01*
X003166Y006819D01*
X003569Y007176D02*
X003709Y007176D01*
X003779Y007246D01*
X003779Y007597D01*
X003959Y007527D02*
X004029Y007597D01*
X004169Y007597D01*
X004239Y007527D01*
X004169Y007386D02*
X004029Y007386D01*
X003959Y007457D01*
X003959Y007527D01*
X004099Y007667D02*
X004099Y007106D01*
X004029Y007176D02*
X004169Y007176D01*
X004239Y007246D01*
X004239Y007316D01*
X004169Y007386D01*
X003959Y007246D02*
X004029Y007176D01*
X004313Y006929D02*
X004453Y007069D01*
X004453Y006649D01*
X004313Y006649D02*
X004594Y006649D01*
X004774Y006719D02*
X004844Y006649D01*
X005054Y006649D01*
X005054Y006929D01*
X005234Y006859D02*
X005374Y006859D01*
X005234Y006649D02*
X005234Y007069D01*
X005514Y007069D01*
X004774Y006929D02*
X004774Y006719D01*
X004153Y006719D02*
X004153Y006649D01*
X004083Y006649D01*
X004083Y006719D01*
X004153Y006719D01*
X004420Y007176D02*
X004700Y007457D01*
X004700Y007527D01*
X004630Y007597D01*
X004490Y007597D01*
X004420Y007527D01*
X004420Y007176D02*
X004700Y007176D01*
X003569Y007176D02*
X003499Y007246D01*
X003499Y007597D01*
X004083Y008119D02*
X004153Y008049D01*
X004293Y008049D01*
X004363Y008119D01*
X004544Y008119D02*
X004544Y008189D01*
X004614Y008259D01*
X004754Y008259D01*
X004824Y008189D01*
X004824Y008119D01*
X004754Y008049D01*
X004614Y008049D01*
X004544Y008119D01*
X004614Y008259D02*
X004544Y008329D01*
X004544Y008399D01*
X004614Y008469D01*
X004754Y008469D01*
X004824Y008399D01*
X004824Y008329D01*
X004754Y008259D01*
X004363Y008399D02*
X004293Y008469D01*
X004153Y008469D01*
X004083Y008399D01*
X004083Y008119D01*
X004373Y008769D02*
X004233Y008909D01*
X004653Y008909D01*
X004633Y008849D02*
X004213Y008849D01*
X004213Y009059D01*
X004283Y009129D01*
X004423Y009129D01*
X004493Y009059D01*
X004493Y008849D01*
X004493Y008989D02*
X004633Y009129D01*
X004653Y009049D02*
X004653Y008769D01*
X004653Y009229D02*
X004233Y009229D01*
X004213Y009309D02*
X004423Y009309D01*
X004353Y009449D01*
X004353Y009519D01*
X004423Y009589D01*
X004563Y009589D01*
X004633Y009519D01*
X004633Y009379D01*
X004563Y009309D01*
X004513Y009229D02*
X004373Y009439D01*
X004213Y009309D02*
X004213Y009589D01*
X004653Y009439D02*
X004513Y009229D01*
X005613Y009309D02*
X006033Y009309D01*
X006073Y009269D02*
X005793Y009549D01*
X005723Y009549D01*
X005653Y009479D01*
X005653Y009339D01*
X005723Y009269D01*
X005893Y009309D02*
X005753Y009519D01*
X005893Y009309D02*
X006033Y009519D01*
X006073Y009549D02*
X006073Y009269D01*
X006033Y009129D02*
X006033Y008849D01*
X006073Y008809D02*
X005653Y008809D01*
X005653Y009019D01*
X005723Y009089D01*
X005863Y009089D01*
X005933Y009019D01*
X005933Y008809D01*
X005933Y008949D02*
X006073Y009089D01*
X006033Y008989D02*
X005613Y008989D01*
X005753Y008849D01*
X006942Y008719D02*
X007012Y008789D01*
X007152Y008789D01*
X007222Y008719D01*
X007222Y008649D01*
X006942Y008369D01*
X007222Y008369D01*
X007402Y008369D02*
X007682Y008649D01*
X007682Y008719D01*
X007612Y008789D01*
X007472Y008789D01*
X007402Y008719D01*
X007403Y008809D02*
X007473Y008879D01*
X007473Y009019D01*
X007403Y009089D01*
X007333Y009089D01*
X007263Y009019D01*
X007263Y008949D01*
X007263Y009019D02*
X007193Y009089D01*
X007123Y009089D01*
X007053Y009019D01*
X007053Y008879D01*
X007123Y008809D01*
X007593Y008929D02*
X007663Y008859D01*
X007943Y008859D01*
X008013Y008929D01*
X008013Y009069D01*
X007943Y009139D01*
X007943Y009319D02*
X008013Y009389D01*
X008013Y009529D01*
X007943Y009599D01*
X007803Y009599D01*
X007733Y009529D01*
X007733Y009459D01*
X007803Y009319D01*
X007593Y009319D01*
X007593Y009599D01*
X007473Y009479D02*
X007403Y009549D01*
X007333Y009549D01*
X007263Y009479D01*
X007263Y009269D01*
X007403Y009269D01*
X007473Y009339D01*
X007473Y009479D01*
X007263Y009269D02*
X007123Y009409D01*
X007053Y009549D01*
X007053Y009729D02*
X007473Y009729D01*
X007333Y009729D02*
X007473Y009939D01*
X007333Y009729D02*
X007193Y009939D01*
X007663Y009139D02*
X007593Y009069D01*
X007593Y008929D01*
X007862Y008649D02*
X007862Y008439D01*
X007932Y008369D01*
X008143Y008369D01*
X008143Y008649D01*
X008323Y008579D02*
X008463Y008579D01*
X008323Y008369D02*
X008323Y008789D01*
X008603Y008789D01*
X008993Y009229D02*
X009413Y009229D01*
X009413Y009089D02*
X009413Y009369D01*
X009703Y009239D02*
X010003Y009239D01*
X009703Y009239D02*
X009703Y009599D01*
X009413Y009619D02*
X009413Y009829D01*
X009133Y009829D01*
X009133Y009549D02*
X009343Y009549D01*
X009413Y009619D01*
X009413Y010009D02*
X008993Y010009D01*
X008993Y010290D01*
X008961Y010289D02*
X008751Y010289D01*
X008751Y010709D01*
X008961Y010709D01*
X009031Y010639D01*
X009031Y010569D01*
X008961Y010499D01*
X008751Y010499D01*
X008961Y010499D02*
X009031Y010429D01*
X009031Y010359D01*
X008961Y010289D01*
X009212Y010289D02*
X009212Y010569D01*
X009352Y010709D01*
X009492Y010569D01*
X009492Y010289D01*
X009672Y010359D02*
X009742Y010289D01*
X009882Y010289D01*
X009952Y010359D01*
X009952Y010429D01*
X009882Y010499D01*
X009742Y010499D01*
X009672Y010569D01*
X009672Y010639D01*
X009742Y010709D01*
X009882Y010709D01*
X009952Y010639D01*
X010132Y010569D02*
X010272Y010709D01*
X010272Y010289D01*
X010132Y010289D02*
X010413Y010289D01*
X010593Y010359D02*
X010663Y010289D01*
X010803Y010289D01*
X010873Y010359D01*
X010873Y010429D01*
X010803Y010499D01*
X010593Y010499D01*
X010593Y010359D01*
X010593Y010499D02*
X010733Y010639D01*
X010873Y010709D01*
X010383Y009759D02*
X010143Y009759D01*
X010523Y009239D02*
X010823Y009239D01*
X010823Y009599D01*
X010272Y008779D02*
X010272Y008219D01*
X010202Y008289D02*
X010343Y008289D01*
X010413Y008359D01*
X010413Y008429D01*
X010343Y008499D01*
X010202Y008499D01*
X010132Y008569D01*
X010132Y008639D01*
X010202Y008709D01*
X010343Y008709D01*
X010413Y008639D01*
X010354Y008609D02*
X010354Y008679D01*
X010424Y008749D01*
X010564Y008749D01*
X010634Y008679D01*
X010634Y008399D01*
X010564Y008329D01*
X010424Y008329D01*
X010354Y008399D01*
X010424Y008539D02*
X010634Y008539D01*
X010663Y008499D02*
X010803Y008499D01*
X010873Y008429D01*
X010873Y008359D01*
X010803Y008289D01*
X010663Y008289D01*
X010593Y008359D01*
X010593Y008429D01*
X010663Y008499D01*
X010593Y008569D01*
X010593Y008639D01*
X010663Y008709D01*
X010803Y008709D01*
X010873Y008639D01*
X010873Y008569D01*
X010803Y008499D01*
X010424Y008539D02*
X010354Y008609D01*
X010173Y008679D02*
X010173Y008539D01*
X010103Y008469D01*
X009893Y008469D01*
X009952Y008359D02*
X009952Y008709D01*
X009893Y008749D02*
X010103Y008749D01*
X010173Y008679D01*
X010033Y008469D02*
X010173Y008329D01*
X010202Y008289D02*
X010132Y008359D01*
X009952Y008359D02*
X009882Y008289D01*
X009742Y008289D01*
X009672Y008359D01*
X009672Y008709D01*
X009893Y008749D02*
X009893Y008329D01*
X009413Y008859D02*
X009343Y008859D01*
X009343Y008929D01*
X009413Y008929D01*
X009413Y008859D01*
X009133Y009089D02*
X008993Y009229D01*
X009203Y010009D02*
X009203Y010150D01*
X009212Y010499D02*
X009492Y010499D01*
X009643Y011899D02*
X008643Y011899D01*
X007643Y011899D01*
X007643Y012999D01*
X006643Y012999D01*
X005643Y012999D01*
X004643Y012999D01*
X003643Y012999D01*
X002643Y012999D01*
X002643Y011899D01*
X003643Y011899D01*
X004643Y011899D01*
X004643Y012999D01*
X004143Y013299D02*
X004143Y015149D01*
X005143Y015149D02*
X005143Y013299D01*
X005643Y012999D02*
X005643Y011899D01*
X004643Y011899D01*
X004933Y012209D02*
X005003Y012139D01*
X004933Y012209D02*
X004933Y012349D01*
X005003Y012419D01*
X005073Y012419D01*
X005143Y012349D01*
X005213Y012419D01*
X005283Y012419D01*
X005353Y012349D01*
X005353Y012209D01*
X005283Y012139D01*
X005143Y012279D02*
X005143Y012349D01*
X005643Y011899D02*
X006643Y011899D01*
X006643Y012999D01*
X006143Y013299D02*
X006143Y015149D01*
X007143Y015149D02*
X007143Y013299D01*
X007643Y012999D02*
X008643Y012999D01*
X009643Y012999D01*
X009643Y011899D01*
X010643Y011899D01*
X010643Y012999D01*
X009643Y012999D01*
X010143Y013299D02*
X010143Y015149D01*
X009143Y015149D02*
X009143Y013299D01*
X008643Y012999D02*
X008643Y011899D01*
X008933Y012139D02*
X008933Y012419D01*
X009003Y012419D01*
X009283Y012139D01*
X009353Y012139D01*
X009933Y012209D02*
X010003Y012139D01*
X010073Y012139D01*
X010143Y012209D01*
X010143Y012349D01*
X010213Y012419D01*
X010283Y012419D01*
X010353Y012349D01*
X010353Y012209D01*
X010283Y012139D01*
X010213Y012139D01*
X010143Y012209D01*
X010143Y012349D02*
X010073Y012419D01*
X010003Y012419D01*
X009933Y012349D01*
X009933Y012209D01*
X010643Y011899D02*
X011643Y011899D01*
X011643Y012999D01*
X012643Y012999D01*
X013643Y012999D01*
X014643Y012999D01*
X015643Y012999D01*
X015643Y011899D01*
X014643Y011899D01*
X013643Y011899D01*
X012643Y011899D01*
X011643Y011899D01*
X011353Y012209D02*
X011353Y012349D01*
X011283Y012419D01*
X011003Y012419D01*
X010933Y012349D01*
X010933Y012209D01*
X011003Y012139D01*
X011073Y012139D01*
X011143Y012209D01*
X011143Y012419D01*
X011353Y012209D02*
X011283Y012139D01*
X011933Y012229D02*
X012353Y012229D01*
X012353Y012089D02*
X012353Y012369D01*
X012283Y012549D02*
X012003Y012549D01*
X011933Y012619D01*
X011933Y012759D01*
X012003Y012829D01*
X012283Y012549D01*
X012353Y012619D01*
X012353Y012759D01*
X012283Y012829D01*
X012003Y012829D01*
X011643Y012999D02*
X010643Y012999D01*
X011143Y013299D02*
X011143Y015149D01*
X012143Y015149D02*
X012143Y013299D01*
X012643Y012999D02*
X012643Y011899D01*
X012933Y012279D02*
X013353Y012279D01*
X013353Y012139D02*
X013353Y012419D01*
X013353Y012599D02*
X013353Y012879D01*
X013353Y012739D02*
X012933Y012739D01*
X013073Y012599D01*
X012933Y012279D02*
X013073Y012139D01*
X013643Y011899D02*
X013643Y012999D01*
X013933Y012759D02*
X013933Y012619D01*
X014003Y012549D01*
X013933Y012759D02*
X014003Y012829D01*
X014073Y012829D01*
X014353Y012549D01*
X014353Y012829D01*
X014643Y012999D02*
X014643Y011899D01*
X014353Y012089D02*
X014353Y012369D01*
X014353Y012229D02*
X013933Y012229D01*
X014073Y012089D01*
X014933Y012229D02*
X015353Y012229D01*
X015353Y012089D02*
X015353Y012369D01*
X015283Y012549D02*
X015353Y012619D01*
X015353Y012759D01*
X015283Y012829D01*
X015213Y012829D01*
X015143Y012759D01*
X015143Y012689D01*
X015143Y012759D02*
X015073Y012829D01*
X015003Y012829D01*
X014933Y012759D01*
X014933Y012619D01*
X015003Y012549D01*
X014933Y012229D02*
X015073Y012089D01*
X016303Y011439D02*
X016303Y011159D01*
X016373Y011089D01*
X016513Y011089D01*
X016583Y011159D01*
X016513Y011169D02*
X016653Y011309D01*
X016653Y010889D01*
X016513Y010889D02*
X016793Y010889D01*
X016974Y010889D02*
X016974Y011309D01*
X017044Y011299D02*
X016834Y011299D01*
X016764Y011369D01*
X016764Y011439D01*
X016834Y011509D01*
X016974Y011509D01*
X017044Y011439D01*
X017044Y011159D01*
X016974Y011089D01*
X016834Y011089D01*
X016764Y011159D01*
X016974Y011029D02*
X017184Y011169D01*
X016974Y011029D02*
X017184Y010889D01*
X017808Y010529D02*
X017948Y010669D01*
X017948Y010249D01*
X017808Y010249D02*
X018089Y010249D01*
X018269Y010249D02*
X018549Y010529D01*
X018549Y010599D01*
X018479Y010669D01*
X018339Y010669D01*
X018269Y010599D01*
X018353Y010769D02*
X018353Y010979D01*
X018283Y011049D01*
X018143Y011049D01*
X018073Y010979D01*
X018073Y010769D01*
X018493Y010769D01*
X018353Y010909D02*
X018493Y011049D01*
X018283Y011229D02*
X018283Y011509D01*
X018493Y011439D02*
X018073Y011439D01*
X018283Y011229D01*
X018799Y010669D02*
X018939Y010669D01*
X019009Y010599D01*
X018729Y010319D01*
X018799Y010249D01*
X018939Y010249D01*
X019009Y010319D01*
X019009Y010599D01*
X019189Y010669D02*
X019189Y010249D01*
X019189Y010389D02*
X019400Y010249D01*
X019189Y010389D02*
X019400Y010529D01*
X019543Y010769D02*
X019473Y010839D01*
X019473Y010979D01*
X019543Y011049D01*
X019613Y011049D01*
X019683Y010979D01*
X019753Y011049D01*
X019823Y011049D01*
X019893Y010979D01*
X019893Y010839D01*
X019823Y010769D01*
X019683Y010909D02*
X019683Y010979D01*
X019683Y011229D02*
X019683Y011439D01*
X019753Y011509D01*
X019823Y011509D01*
X019893Y011439D01*
X019893Y011299D01*
X019823Y011229D01*
X019683Y011229D01*
X019543Y011369D01*
X019473Y011509D01*
X019473Y011689D02*
X019893Y011689D01*
X019753Y011689D02*
X019613Y011899D01*
X019753Y011689D02*
X019893Y011899D01*
X018799Y010669D02*
X018729Y010599D01*
X018729Y010319D01*
X018549Y010249D02*
X018269Y010249D01*
X017964Y010109D02*
X017684Y010109D01*
X017684Y009689D01*
X017504Y009689D02*
X017504Y009899D01*
X017434Y009969D01*
X017224Y009969D01*
X017224Y009689D01*
X017044Y009759D02*
X016974Y009689D01*
X016834Y009689D01*
X016764Y009759D01*
X017044Y010039D01*
X017044Y009759D01*
X017044Y010039D02*
X016974Y010109D01*
X016834Y010109D01*
X016764Y010039D01*
X016764Y009759D01*
X016583Y009689D02*
X016303Y009689D01*
X016443Y009689D02*
X016443Y010109D01*
X016303Y009969D01*
X016951Y009369D02*
X016951Y008949D01*
X017231Y008949D01*
X017412Y008949D02*
X017412Y009369D01*
X017622Y009369D01*
X017692Y009299D01*
X017692Y009159D01*
X017622Y009089D01*
X017412Y009089D01*
X017715Y008803D02*
X017954Y008803D01*
X017954Y006914D01*
X017715Y006914D01*
X017872Y006769D02*
X017872Y006419D01*
X017942Y006349D01*
X018082Y006349D01*
X018152Y006419D01*
X018152Y006769D01*
X018332Y006699D02*
X018402Y006769D01*
X018543Y006769D01*
X018613Y006699D01*
X018543Y006559D02*
X018402Y006559D01*
X018332Y006629D01*
X018332Y006699D01*
X018472Y006839D02*
X018472Y006279D01*
X018402Y006349D02*
X018543Y006349D01*
X018613Y006419D01*
X018613Y006489D01*
X018543Y006559D01*
X018793Y006559D02*
X018933Y006629D01*
X019003Y006629D01*
X019073Y006559D01*
X019073Y006419D01*
X019003Y006349D01*
X018863Y006349D01*
X018793Y006419D01*
X018793Y006559D02*
X018793Y006769D01*
X019073Y006769D01*
X019014Y006914D02*
X019014Y008803D01*
X019211Y008803D01*
X019183Y008849D02*
X019323Y008849D01*
X019393Y008919D01*
X019393Y008989D01*
X019323Y009059D01*
X019183Y009059D01*
X019113Y009129D01*
X019113Y009199D01*
X019183Y009269D01*
X019323Y009269D01*
X019393Y009199D01*
X019393Y009129D01*
X019323Y009059D01*
X019183Y009059D02*
X019113Y008989D01*
X019113Y008919D01*
X019183Y008849D01*
X019073Y008949D02*
X018793Y008949D01*
X018793Y008989D02*
X018933Y008849D01*
X019014Y008803D02*
X017954Y008803D01*
X017942Y008949D02*
X017872Y009019D01*
X017942Y008949D02*
X018082Y008949D01*
X018152Y009019D01*
X018152Y009089D01*
X018082Y009159D01*
X018012Y009159D01*
X018082Y009159D02*
X018152Y009229D01*
X018152Y009299D01*
X018082Y009369D01*
X017942Y009369D01*
X017872Y009299D01*
X018332Y009229D02*
X018472Y009369D01*
X018472Y008949D01*
X018332Y008949D02*
X018613Y008949D01*
X018652Y008989D02*
X018863Y008989D01*
X018933Y009059D01*
X018933Y009199D01*
X018863Y009269D01*
X018652Y009269D01*
X018652Y008849D01*
X018933Y008949D02*
X018933Y009369D01*
X018793Y009229D01*
X017824Y009899D02*
X017684Y009899D01*
X016583Y011439D02*
X016513Y011509D01*
X016373Y011509D01*
X016303Y011439D01*
X016513Y012289D02*
X016513Y012709D01*
X016723Y012709D01*
X016793Y012639D01*
X016793Y012499D01*
X016723Y012429D01*
X016513Y012429D01*
X016653Y012429D02*
X016793Y012289D01*
X016974Y012359D02*
X017044Y012289D01*
X017184Y012289D01*
X017254Y012359D01*
X017254Y012429D01*
X017184Y012499D01*
X017114Y012499D01*
X017184Y012499D02*
X017254Y012569D01*
X017254Y012639D01*
X017184Y012709D01*
X017044Y012709D01*
X016974Y012639D01*
X015143Y013299D02*
X015143Y015149D01*
X014143Y015149D02*
X014143Y013299D01*
X013143Y013299D02*
X013143Y015149D01*
X011933Y012229D02*
X012073Y012089D01*
X012071Y010969D02*
X012071Y010549D01*
X012351Y010549D01*
X012531Y010549D02*
X012531Y010969D01*
X012671Y010829D01*
X012811Y010969D01*
X012811Y010549D01*
X012992Y010619D02*
X012992Y010759D01*
X013202Y010759D01*
X013272Y010689D01*
X013272Y010619D01*
X013202Y010549D01*
X013062Y010549D01*
X012992Y010619D01*
X012992Y010759D02*
X013132Y010899D01*
X013272Y010969D01*
X013452Y010899D02*
X013522Y010969D01*
X013662Y010969D01*
X013732Y010899D01*
X013452Y010619D01*
X013522Y010549D01*
X013662Y010549D01*
X013732Y010619D01*
X013732Y010899D01*
X013912Y010899D02*
X013982Y010969D01*
X014122Y010969D01*
X014192Y010899D01*
X014192Y010829D01*
X014122Y010759D01*
X014192Y010689D01*
X014192Y010619D01*
X014122Y010549D01*
X013982Y010549D01*
X013912Y010619D01*
X014052Y010759D02*
X014122Y010759D01*
X014373Y010899D02*
X014443Y010969D01*
X014583Y010969D01*
X014653Y010899D01*
X014653Y010829D01*
X014373Y010549D01*
X014653Y010549D01*
X014594Y010403D02*
X014594Y008514D01*
X013534Y008514D01*
X013534Y010403D01*
X014594Y010403D01*
X014791Y010403D01*
X013534Y010403D02*
X013295Y010403D01*
X013452Y010619D02*
X013452Y010899D01*
X013534Y008514D02*
X013295Y008514D01*
X013452Y008369D02*
X013452Y008019D01*
X013522Y007949D01*
X013662Y007949D01*
X013732Y008019D01*
X013732Y008369D01*
X013912Y008299D02*
X013982Y008369D01*
X014123Y008369D01*
X014193Y008299D01*
X014123Y008159D02*
X014193Y008089D01*
X014193Y008019D01*
X014123Y007949D01*
X013982Y007949D01*
X013912Y008019D01*
X013982Y008159D02*
X013912Y008229D01*
X013912Y008299D01*
X013982Y008159D02*
X014123Y008159D01*
X014373Y008159D02*
X014373Y008019D01*
X014443Y007949D01*
X014583Y007949D01*
X014653Y008019D01*
X014653Y008089D01*
X014583Y008159D01*
X014373Y008159D01*
X014513Y008299D01*
X014653Y008369D01*
X014594Y008514D02*
X014791Y008514D01*
X014052Y008439D02*
X014052Y007879D01*
X014213Y007899D02*
X014353Y007689D01*
X014493Y007899D01*
X014493Y007689D02*
X014073Y007689D01*
X014143Y007509D02*
X014073Y007439D01*
X014073Y007299D01*
X014143Y007229D01*
X014213Y007269D02*
X014073Y007409D01*
X014493Y007409D01*
X014493Y007509D02*
X014493Y007229D01*
X014213Y007509D01*
X014143Y007509D01*
X014493Y007549D02*
X014493Y007269D01*
X014493Y007089D02*
X014353Y006949D01*
X014353Y007019D02*
X014353Y006809D01*
X014283Y006769D02*
X014283Y006979D01*
X014353Y007049D01*
X014423Y007049D01*
X014493Y006979D01*
X014493Y006839D01*
X014423Y006769D01*
X014283Y006769D01*
X014143Y006909D01*
X014073Y007049D01*
X014073Y007019D02*
X014143Y007089D01*
X014283Y007089D01*
X014353Y007019D01*
X014493Y006809D02*
X014073Y006809D01*
X014073Y007019D01*
X013093Y007049D02*
X012953Y006909D01*
X012953Y006979D02*
X012953Y006769D01*
X013093Y006769D02*
X012673Y006769D01*
X012673Y006979D01*
X012743Y007049D01*
X012883Y007049D01*
X012953Y006979D01*
X012883Y007229D02*
X012883Y007439D01*
X012953Y007509D01*
X013023Y007509D01*
X013093Y007439D01*
X013093Y007299D01*
X013023Y007229D01*
X012883Y007229D01*
X012743Y007369D01*
X012673Y007509D01*
X010953Y007289D02*
X010813Y007219D01*
X010673Y007079D01*
X010883Y007079D01*
X010953Y007009D01*
X010953Y006939D01*
X010883Y006869D01*
X010743Y006869D01*
X010673Y006939D01*
X010673Y007079D01*
X010564Y007209D02*
X010354Y007069D01*
X010564Y006929D01*
X010493Y006869D02*
X010212Y006869D01*
X010173Y006929D02*
X009893Y006929D01*
X009962Y006869D02*
X009822Y006869D01*
X009752Y006939D01*
X009822Y007079D02*
X009752Y007149D01*
X009752Y007219D01*
X009822Y007289D01*
X009962Y007289D01*
X010032Y007219D01*
X010033Y007349D02*
X010033Y006929D01*
X010032Y006939D02*
X009962Y006869D01*
X010032Y006939D02*
X010032Y007009D01*
X009962Y007079D01*
X009822Y007079D01*
X009893Y007209D02*
X010033Y007349D01*
X010212Y007149D02*
X010352Y007289D01*
X010352Y006869D01*
X010354Y006929D02*
X010354Y007349D01*
X009572Y007149D02*
X009572Y006869D01*
X009572Y007079D02*
X009292Y007079D01*
X009292Y007149D02*
X009292Y006869D01*
X009111Y006939D02*
X009041Y006869D01*
X008831Y006869D01*
X008831Y007289D01*
X009041Y007289D01*
X009111Y007219D01*
X009111Y007149D01*
X009041Y007079D01*
X008831Y007079D01*
X009041Y007079D02*
X009111Y007009D01*
X009111Y006939D01*
X009292Y007149D02*
X009432Y007289D01*
X009572Y007149D01*
X008603Y007249D02*
X008603Y007319D01*
X008533Y007389D01*
X008393Y007389D01*
X008323Y007319D01*
X008494Y007329D02*
X008494Y007749D01*
X008284Y007539D01*
X008564Y007539D01*
X008603Y007249D02*
X008323Y006969D01*
X008603Y006969D01*
X008143Y007039D02*
X008073Y006969D01*
X007932Y006969D01*
X007862Y007039D01*
X007862Y007319D01*
X007932Y007389D01*
X008073Y007389D01*
X008143Y007319D01*
X008103Y007399D02*
X008033Y007329D01*
X007893Y007329D01*
X007823Y007399D01*
X007823Y007679D01*
X007893Y007749D01*
X008033Y007749D01*
X008103Y007679D01*
X007682Y008369D02*
X007402Y008369D01*
X007442Y006549D02*
X007442Y006129D01*
X007302Y006129D02*
X007582Y006129D01*
X007762Y006199D02*
X007832Y006129D01*
X008043Y006129D01*
X008043Y006409D01*
X008193Y006349D02*
X008053Y006209D01*
X008223Y006129D02*
X008223Y006549D01*
X008503Y006549D01*
X008363Y006339D02*
X008223Y006339D01*
X008193Y006349D02*
X008193Y005929D01*
X008053Y005929D02*
X008334Y005929D01*
X008514Y005999D02*
X008584Y005929D01*
X008794Y005929D01*
X008794Y006209D01*
X008974Y006139D02*
X009114Y006139D01*
X008974Y005929D02*
X008974Y006349D01*
X009254Y006349D01*
X009783Y006179D02*
X009783Y005819D01*
X010083Y005819D01*
X010603Y005819D02*
X010903Y005819D01*
X010903Y006179D01*
X010463Y006339D02*
X010223Y006339D01*
X010352Y005359D02*
X010352Y004799D01*
X010282Y004869D02*
X010423Y004869D01*
X010493Y004939D01*
X010493Y005009D01*
X010423Y005079D01*
X010282Y005079D01*
X010212Y005149D01*
X010212Y005219D01*
X010282Y005289D01*
X010423Y005289D01*
X010493Y005219D01*
X010673Y005219D02*
X010743Y005289D01*
X010883Y005289D01*
X010953Y005219D01*
X010953Y005149D01*
X010883Y005079D01*
X010953Y005009D01*
X010953Y004939D01*
X010883Y004869D01*
X010743Y004869D01*
X010673Y004939D01*
X010863Y004939D02*
X010863Y004189D01*
X010653Y004268D02*
X010653Y004681D01*
X010653Y004474D02*
X010033Y004474D01*
X010239Y004268D01*
X010136Y004037D02*
X010033Y003933D01*
X010033Y003726D01*
X010136Y003623D01*
X010239Y003623D01*
X010343Y003726D01*
X010343Y003933D01*
X010446Y004037D01*
X010550Y004037D01*
X010653Y003933D01*
X010653Y003726D01*
X010550Y003623D01*
X010550Y003392D02*
X010033Y003392D01*
X009929Y003830D02*
X010757Y003830D01*
X010863Y003689D02*
X010894Y003691D01*
X010925Y003697D01*
X010955Y003707D01*
X010983Y003720D01*
X011010Y003737D01*
X011034Y003757D01*
X011056Y003780D01*
X011074Y003805D01*
X011089Y003833D01*
X011101Y003862D01*
X011109Y003892D01*
X011113Y003923D01*
X011113Y003955D01*
X011109Y003986D01*
X011101Y004016D01*
X011089Y004045D01*
X011074Y004073D01*
X011056Y004098D01*
X011034Y004121D01*
X011010Y004141D01*
X010983Y004158D01*
X010955Y004171D01*
X010925Y004181D01*
X010894Y004187D01*
X010863Y004189D01*
X011403Y004042D02*
X011610Y004249D01*
X011610Y003629D01*
X011403Y003629D02*
X011817Y003629D01*
X012048Y003732D02*
X012151Y003629D01*
X012358Y003629D01*
X012461Y003732D01*
X012461Y003835D01*
X012358Y003939D01*
X012048Y003939D01*
X012048Y003732D01*
X012048Y003939D02*
X012254Y004146D01*
X012461Y004249D01*
X012692Y004249D02*
X013106Y004249D01*
X012899Y003939D02*
X012692Y003939D01*
X012692Y003629D02*
X012692Y004249D01*
X013337Y003939D02*
X013337Y003732D01*
X013440Y003629D01*
X013647Y003629D01*
X013750Y003732D01*
X013750Y003835D01*
X013647Y003939D01*
X013337Y003939D01*
X013544Y004146D01*
X013750Y004249D01*
X013981Y004146D02*
X014085Y004249D01*
X014291Y004249D01*
X014395Y004146D01*
X014395Y004042D01*
X013981Y003629D01*
X014395Y003629D01*
X014626Y003629D02*
X014626Y003732D01*
X015039Y004146D01*
X015039Y004249D01*
X014626Y004249D01*
X015270Y004042D02*
X015477Y004249D01*
X015684Y004042D01*
X015684Y003629D01*
X015270Y003629D02*
X015270Y004042D01*
X015270Y003939D02*
X015684Y003939D01*
X018332Y006419D02*
X018402Y006349D01*
X017954Y006914D02*
X019014Y006914D01*
X019211Y006914D01*
X019863Y004939D02*
X010863Y004939D01*
X010883Y005079D02*
X010813Y005079D01*
X010282Y004869D02*
X010212Y004939D01*
X010032Y004939D02*
X010032Y005289D01*
X009752Y005289D02*
X009752Y004939D01*
X009822Y004869D01*
X009962Y004869D01*
X010032Y004939D01*
X008674Y004999D02*
X008394Y004719D01*
X008394Y004649D01*
X008433Y004729D02*
X008293Y004729D01*
X008223Y004799D01*
X008213Y004859D02*
X008143Y004789D01*
X007933Y004789D01*
X007973Y004729D02*
X008043Y004799D01*
X008073Y004789D02*
X008213Y004649D01*
X008213Y004859D02*
X008213Y004999D01*
X008143Y005069D01*
X007933Y005069D01*
X007933Y004649D01*
X007973Y004729D02*
X007832Y004729D01*
X007762Y004799D01*
X007762Y005079D01*
X007832Y005149D01*
X007973Y005149D01*
X008043Y005079D01*
X008223Y005079D02*
X008293Y005149D01*
X008433Y005149D01*
X008503Y005079D01*
X008503Y005009D01*
X008433Y004939D01*
X008503Y004869D01*
X008503Y004799D01*
X008433Y004729D01*
X008433Y004939D02*
X008363Y004939D01*
X008394Y005069D02*
X008674Y005069D01*
X008674Y004999D01*
X008514Y005999D02*
X008514Y006209D01*
X007893Y005999D02*
X007893Y005929D01*
X007823Y005929D01*
X007823Y005999D01*
X007893Y005999D01*
X007762Y006199D02*
X007762Y006409D01*
X007442Y006549D02*
X007302Y006409D01*
X008143Y003669D02*
X007933Y003459D01*
X008213Y003459D01*
X008123Y003429D02*
X008193Y003359D01*
X008193Y003219D01*
X008123Y003149D01*
X007913Y003149D01*
X008053Y003149D02*
X008193Y003009D01*
X008374Y003009D02*
X008654Y003009D01*
X008514Y003009D02*
X008514Y003429D01*
X008374Y003289D01*
X008394Y003319D02*
X008394Y003249D01*
X008394Y003319D02*
X008674Y003599D01*
X008674Y003669D01*
X008394Y003669D01*
X008143Y003669D02*
X008143Y003249D01*
X008123Y003429D02*
X007913Y003429D01*
X007913Y003009D01*
X008834Y003009D02*
X009114Y003009D01*
X008974Y003009D02*
X008974Y003429D01*
X008834Y003289D01*
X010033Y002979D02*
X010550Y002979D01*
X010653Y003082D01*
X010653Y003289D01*
X010550Y003392D01*
X010863Y003689D02*
X010863Y002939D01*
X019863Y002939D01*
X019863Y004939D01*
X015893Y006809D02*
X015893Y007089D01*
X015893Y006949D02*
X015473Y006949D01*
X015613Y006809D01*
X015753Y007269D02*
X015613Y007479D01*
X015753Y007269D02*
X015893Y007479D01*
X015893Y007269D02*
X015473Y007269D01*
X008353Y012209D02*
X008353Y012349D01*
X008283Y012419D01*
X008213Y012419D01*
X008143Y012349D01*
X008143Y012139D01*
X008283Y012139D01*
X008353Y012209D01*
X008143Y012139D02*
X008003Y012279D01*
X007933Y012419D01*
X007353Y012349D02*
X007353Y012209D01*
X007283Y012139D01*
X007143Y012139D02*
X007073Y012279D01*
X007073Y012349D01*
X007143Y012419D01*
X007283Y012419D01*
X007353Y012349D01*
X007143Y012139D02*
X006933Y012139D01*
X006933Y012419D01*
X006353Y012349D02*
X005933Y012349D01*
X006143Y012139D01*
X006143Y012419D01*
X006643Y011899D02*
X007643Y011899D01*
X008143Y013299D02*
X008143Y015149D01*
X004353Y012419D02*
X004353Y012139D01*
X004073Y012419D01*
X004003Y012419D01*
X003933Y012349D01*
X003933Y012209D01*
X004003Y012139D01*
X003643Y011899D02*
X003643Y012999D01*
X003143Y013299D02*
X003143Y015149D01*
X003353Y012419D02*
X003353Y012139D01*
X003353Y012279D02*
X002933Y012279D01*
X003073Y012139D01*
X002473Y012319D02*
X002193Y012039D01*
X002193Y011969D01*
X002013Y012039D02*
X001942Y011969D01*
X001802Y011969D01*
X001732Y012039D01*
X002013Y012319D01*
X002013Y012039D01*
X002013Y012319D02*
X001942Y012389D01*
X001802Y012389D01*
X001732Y012319D01*
X001732Y012039D01*
X001552Y012039D02*
X001482Y011969D01*
X001342Y011969D01*
X001272Y012039D01*
X001272Y012109D01*
X001342Y012179D01*
X001482Y012179D01*
X001552Y012109D01*
X001552Y012039D01*
X001482Y012179D02*
X001552Y012249D01*
X001552Y012319D01*
X001482Y012389D01*
X001342Y012389D01*
X001272Y012319D01*
X001272Y012249D01*
X001342Y012179D01*
X001092Y012319D02*
X001022Y012389D01*
X000882Y012389D01*
X000812Y012319D01*
X000812Y012039D01*
X000882Y011969D01*
X001022Y011969D01*
X001092Y012039D01*
X000631Y012039D02*
X000561Y011969D01*
X000351Y011969D01*
X000351Y012389D01*
X000561Y012389D01*
X000631Y012319D01*
X000631Y012249D01*
X000561Y012179D01*
X000351Y012179D01*
X000561Y012179D02*
X000631Y012109D01*
X000631Y012039D01*
X001303Y011279D02*
X001303Y010919D01*
X001603Y010919D01*
X002123Y010919D02*
X002423Y010919D01*
X002423Y011279D01*
X001983Y011439D02*
X001743Y011439D01*
X002733Y010689D02*
X002733Y010619D01*
X002803Y010549D01*
X002943Y010549D01*
X003013Y010479D01*
X003013Y010409D01*
X002943Y010339D01*
X002803Y010339D01*
X002733Y010409D01*
X002403Y010389D02*
X002193Y010179D01*
X002473Y010179D01*
X002403Y009969D02*
X002403Y010389D01*
X002013Y010319D02*
X001943Y010389D01*
X001802Y010389D01*
X001732Y010319D01*
X001732Y010249D01*
X001802Y010179D01*
X001943Y010179D01*
X002013Y010109D01*
X002013Y010039D01*
X001943Y009969D01*
X001802Y009969D01*
X001732Y010039D01*
X001552Y010039D02*
X001552Y010389D01*
X001872Y010459D02*
X001872Y009899D01*
X001552Y010039D02*
X001482Y009969D01*
X001342Y009969D01*
X001272Y010039D01*
X001272Y010389D01*
X002733Y010689D02*
X002803Y010759D01*
X002943Y010759D01*
X003013Y010689D01*
X003194Y010759D02*
X003194Y010479D01*
X003334Y010339D01*
X003474Y010479D01*
X003474Y010759D01*
X003654Y010619D02*
X003794Y010759D01*
X003794Y010339D01*
X003654Y010339D02*
X003934Y010339D01*
X003253Y009899D02*
X003253Y009759D01*
X003183Y009689D01*
X002903Y009970D01*
X003183Y009970D01*
X003253Y009899D01*
X002903Y009970D02*
X002833Y009899D01*
X002833Y009759D01*
X002903Y009689D01*
X003183Y009689D01*
X003253Y009509D02*
X003253Y009229D01*
X003253Y009369D02*
X002833Y009369D01*
X002973Y009229D01*
X003043Y009049D02*
X003113Y008979D01*
X003113Y008769D01*
X003113Y008909D02*
X003253Y009049D01*
X003043Y009049D02*
X002903Y009049D01*
X002833Y008979D01*
X002833Y008769D01*
X003253Y008769D01*
X002373Y005918D02*
X002373Y005638D01*
X002373Y005778D02*
X001953Y005778D01*
X002093Y005638D01*
X002023Y005458D02*
X001953Y005388D01*
X001953Y005248D01*
X002023Y005178D01*
X002303Y005178D01*
X002373Y005248D01*
X002373Y005388D01*
X002303Y005458D01*
X002083Y003598D02*
X002363Y003318D01*
X002433Y003318D01*
X002363Y003138D02*
X002433Y003068D01*
X002433Y002928D01*
X002363Y002858D01*
X002083Y002858D01*
X002013Y002928D01*
X002013Y003068D01*
X002083Y003138D01*
X002013Y003318D02*
X002013Y003598D01*
X002083Y003598D01*
X003396Y001458D02*
X003326Y001388D01*
X003326Y001318D01*
X003396Y001248D01*
X003536Y001248D01*
X003606Y001178D01*
X003606Y001108D01*
X003536Y001038D01*
X003396Y001038D01*
X003326Y001108D01*
X003396Y001458D02*
X003536Y001458D01*
X003606Y001388D01*
X003786Y001458D02*
X004066Y001458D01*
X003926Y001458D02*
X003926Y001038D01*
X004246Y001038D02*
X004527Y001318D01*
X004527Y001388D01*
X004456Y001458D01*
X004316Y001458D01*
X004246Y001388D01*
X004707Y001388D02*
X004777Y001458D01*
X004917Y001458D01*
X004987Y001388D01*
X004987Y001318D01*
X004917Y001248D01*
X004987Y001178D01*
X004987Y001108D01*
X004917Y001038D01*
X004777Y001038D01*
X004707Y001108D01*
X004527Y001038D02*
X004246Y001038D01*
X004847Y001248D02*
X004917Y001248D01*
X005167Y001388D02*
X005237Y001458D01*
X005377Y001458D01*
X005447Y001388D01*
X005447Y001318D01*
X005167Y001038D01*
X005447Y001038D01*
X005627Y001108D02*
X005697Y001038D01*
X005838Y001038D01*
X005908Y001108D01*
X006088Y001038D02*
X006298Y001038D01*
X006368Y001108D01*
X006368Y001388D01*
X006298Y001458D01*
X006088Y001458D01*
X006088Y001038D01*
X005627Y001108D02*
X005627Y001388D01*
X005697Y001458D01*
X005838Y001458D01*
X005908Y001388D01*
X007913Y001609D02*
X008193Y001609D01*
X008053Y001609D02*
X008053Y002029D01*
X007913Y001889D01*
X008374Y001959D02*
X008374Y001679D01*
X008654Y001959D01*
X008654Y001679D01*
X008584Y001609D01*
X008444Y001609D01*
X008374Y001679D01*
X008374Y001959D02*
X008444Y002029D01*
X008584Y002029D01*
X008654Y001959D01*
X008834Y002029D02*
X008834Y001609D01*
X008834Y001749D02*
X009044Y001889D01*
X008834Y001749D02*
X009044Y001609D01*
X002473Y012319D02*
X002473Y012389D01*
X002193Y012389D01*
D11*
X003143Y013149D03*
X004143Y013149D03*
X005143Y013149D03*
X006143Y013149D03*
X007143Y013149D03*
X008143Y013149D03*
X009143Y013149D03*
X010143Y013149D03*
X011143Y013149D03*
X012143Y013149D03*
X013143Y013149D03*
X014143Y013149D03*
X015143Y013149D03*
D12*
X015143Y011769D03*
X014143Y011769D03*
X013143Y011769D03*
X012143Y011769D03*
X011143Y011769D03*
X010143Y011769D03*
X009143Y011769D03*
X008143Y011769D03*
X007143Y011769D03*
X006143Y011769D03*
X005143Y011769D03*
X004143Y011769D03*
X003143Y011769D03*
D13*
X014230Y008759D02*
X014232Y008780D01*
X014238Y008801D01*
X014248Y008820D01*
X014261Y008837D01*
X014277Y008851D01*
X014296Y008862D01*
X014316Y008869D01*
X014338Y008872D01*
X014359Y008871D01*
X014380Y008866D01*
X014399Y008857D01*
X014417Y008844D01*
X014432Y008829D01*
X014443Y008811D01*
X014451Y008791D01*
X014455Y008770D01*
X014455Y008748D01*
X014451Y008727D01*
X014443Y008707D01*
X014432Y008689D01*
X014417Y008674D01*
X014400Y008661D01*
X014380Y008652D01*
X014359Y008647D01*
X014338Y008646D01*
X014316Y008649D01*
X014296Y008656D01*
X014277Y008667D01*
X014261Y008681D01*
X014248Y008698D01*
X014238Y008717D01*
X014232Y008738D01*
X014230Y008759D01*
X018650Y007159D02*
X018652Y007180D01*
X018658Y007201D01*
X018668Y007220D01*
X018681Y007237D01*
X018697Y007251D01*
X018716Y007262D01*
X018736Y007269D01*
X018758Y007272D01*
X018779Y007271D01*
X018800Y007266D01*
X018819Y007257D01*
X018837Y007244D01*
X018852Y007229D01*
X018863Y007211D01*
X018871Y007191D01*
X018875Y007170D01*
X018875Y007148D01*
X018871Y007127D01*
X018863Y007107D01*
X018852Y007089D01*
X018837Y007074D01*
X018820Y007061D01*
X018800Y007052D01*
X018779Y007047D01*
X018758Y007046D01*
X018736Y007049D01*
X018716Y007056D01*
X018697Y007067D01*
X018681Y007081D01*
X018668Y007098D01*
X018658Y007117D01*
X018652Y007138D01*
X018650Y007159D01*
M02*
