G75*
G70*
%OFA0B0*%
%FSLAX24Y24*%
%IPPOS*%
%LPD*%
%AMOC8*
5,1,8,0,0,1.08239X$1,22.5*
%
%ADD10C,0.0080*%
D10*
X000403Y001179D02*
X020323Y001179D01*
X020323Y012699D01*
X000563Y012619D01*
X000403Y012619D02*
X000403Y001179D01*
X006683Y006089D02*
X006753Y006019D01*
X006893Y006019D01*
X006963Y006089D01*
X006963Y006159D01*
X006893Y006229D01*
X006753Y006229D01*
X006683Y006299D01*
X006683Y006369D01*
X006753Y006439D01*
X006893Y006439D01*
X006963Y006369D01*
X007144Y006369D02*
X007144Y006089D01*
X007214Y006019D01*
X007354Y006019D01*
X007424Y006089D01*
X007424Y006369D01*
X007354Y006439D01*
X007214Y006439D01*
X007144Y006369D01*
X007604Y006439D02*
X007604Y006019D01*
X007884Y006019D02*
X007604Y006439D01*
X007884Y006439D02*
X007884Y006019D01*
X008064Y006019D02*
X008344Y006299D01*
X008344Y006369D01*
X008274Y006439D01*
X008134Y006439D01*
X008064Y006369D01*
X008064Y006019D02*
X008344Y006019D01*
X008525Y006089D02*
X008595Y006019D01*
X008735Y006019D01*
X008805Y006089D01*
X008805Y006229D01*
X008735Y006299D01*
X008665Y006299D01*
X008525Y006229D01*
X008525Y006439D01*
X008805Y006439D01*
X008985Y006439D02*
X008985Y006019D01*
X008985Y006159D02*
X009265Y006439D01*
X009445Y006439D02*
X009445Y006019D01*
X009265Y006019D02*
X009055Y006229D01*
X009445Y006229D02*
X009726Y006229D01*
X009726Y006439D02*
X009726Y006019D01*
X009906Y006019D02*
X010186Y006019D01*
X009906Y006019D02*
X009906Y006089D01*
X010186Y006369D01*
X010186Y006439D01*
X009906Y006439D01*
X012133Y006599D02*
X016233Y006599D01*
X016233Y006699D01*
X016293Y006359D02*
X016223Y006289D01*
X016223Y006219D01*
X016293Y006149D01*
X016433Y006149D01*
X016503Y006079D01*
X016503Y006009D01*
X016433Y005939D01*
X016293Y005939D01*
X016223Y006009D01*
X016503Y006289D02*
X016433Y006359D01*
X016293Y006359D01*
X016684Y006289D02*
X016684Y006009D01*
X016754Y005939D01*
X016894Y005939D01*
X016964Y006009D01*
X016964Y006289D01*
X016894Y006359D01*
X016754Y006359D01*
X016684Y006289D01*
X017144Y006359D02*
X017144Y005939D01*
X017424Y005939D02*
X017424Y006359D01*
X017604Y006289D02*
X017674Y006359D01*
X017814Y006359D01*
X017884Y006289D01*
X017884Y006219D01*
X017604Y005939D01*
X017884Y005939D01*
X018065Y006009D02*
X018135Y005939D01*
X018275Y005939D01*
X018345Y006009D01*
X018345Y006149D01*
X018275Y006219D01*
X018205Y006219D01*
X018065Y006149D01*
X018065Y006359D01*
X018345Y006359D01*
X018525Y006359D02*
X018525Y005939D01*
X018525Y006079D02*
X018805Y006359D01*
X018985Y006359D02*
X018985Y005939D01*
X018805Y005939D02*
X018595Y006149D01*
X018985Y006149D02*
X019266Y006149D01*
X019266Y006359D02*
X019266Y005939D01*
X019446Y005939D02*
X019446Y006009D01*
X019726Y006289D01*
X019726Y006359D01*
X019446Y006359D01*
X019446Y005939D02*
X019726Y005939D01*
X017424Y005939D02*
X017144Y006359D01*
X016233Y008099D02*
X016233Y008199D01*
X012133Y008199D01*
X012133Y008099D01*
X012133Y006699D02*
X012133Y006599D01*
X013783Y007399D02*
X013785Y007439D01*
X013791Y007480D01*
X013801Y007519D01*
X013815Y007557D01*
X013833Y007593D01*
X013855Y007628D01*
X013879Y007660D01*
X013907Y007689D01*
X013938Y007715D01*
X013971Y007738D01*
X014007Y007758D01*
X014044Y007774D01*
X014083Y007786D01*
X014122Y007794D01*
X014163Y007798D01*
X014203Y007798D01*
X014244Y007794D01*
X014283Y007786D01*
X014322Y007774D01*
X014359Y007758D01*
X014395Y007738D01*
X014428Y007715D01*
X014459Y007689D01*
X014487Y007660D01*
X014511Y007628D01*
X014533Y007593D01*
X014551Y007557D01*
X014565Y007519D01*
X014575Y007480D01*
X014581Y007439D01*
X014583Y007399D01*
X014581Y007359D01*
X014575Y007318D01*
X014565Y007279D01*
X014551Y007241D01*
X014533Y007205D01*
X014511Y007170D01*
X014487Y007138D01*
X014459Y007109D01*
X014428Y007083D01*
X014395Y007060D01*
X014359Y007040D01*
X014322Y007024D01*
X014283Y007012D01*
X014244Y007004D01*
X014203Y007000D01*
X014163Y007000D01*
X014122Y007004D01*
X014083Y007012D01*
X014044Y007024D01*
X014007Y007040D01*
X013971Y007060D01*
X013938Y007083D01*
X013907Y007109D01*
X013879Y007138D01*
X013855Y007170D01*
X013833Y007205D01*
X013815Y007241D01*
X013801Y007279D01*
X013791Y007318D01*
X013785Y007359D01*
X013783Y007399D01*
X014942Y008509D02*
X015012Y008439D01*
X015152Y008439D01*
X015222Y008509D01*
X015152Y008649D02*
X014942Y008649D01*
X014942Y008509D02*
X014942Y008789D01*
X015012Y008859D01*
X015152Y008859D01*
X015222Y008789D01*
X015222Y008719D01*
X015152Y008649D01*
X015403Y008579D02*
X015473Y008649D01*
X015613Y008649D01*
X015683Y008719D01*
X015683Y008789D01*
X015613Y008859D01*
X015473Y008859D01*
X015403Y008789D01*
X015543Y008929D02*
X015543Y008369D01*
X015613Y008439D02*
X015473Y008439D01*
X015403Y008509D01*
X015403Y008579D01*
X015613Y008439D02*
X015683Y008509D01*
X015863Y008509D02*
X015863Y008859D01*
X016143Y008859D02*
X016143Y008509D01*
X016073Y008439D01*
X015933Y008439D01*
X015863Y008509D01*
X006693Y008279D02*
X002593Y008279D01*
X002593Y008179D01*
X002593Y006779D02*
X002593Y006679D01*
X006693Y006679D01*
X006693Y006779D01*
X006693Y008179D02*
X006693Y008279D01*
X006533Y008519D02*
X006393Y008519D01*
X006323Y008589D01*
X006323Y008939D01*
X006143Y008869D02*
X006073Y008939D01*
X005933Y008939D01*
X005863Y008869D01*
X005933Y008729D02*
X005863Y008659D01*
X005863Y008589D01*
X005933Y008519D01*
X006073Y008519D01*
X006143Y008589D01*
X006073Y008729D02*
X006143Y008799D01*
X006143Y008869D01*
X006073Y008729D02*
X005933Y008729D01*
X005682Y008589D02*
X005682Y008519D01*
X005682Y008589D02*
X005402Y008869D01*
X005402Y008939D01*
X005682Y008939D01*
X006003Y009009D02*
X006003Y008449D01*
X006533Y008519D02*
X006603Y008589D01*
X006603Y008939D01*
X004243Y007479D02*
X004245Y007519D01*
X004251Y007560D01*
X004261Y007599D01*
X004275Y007637D01*
X004293Y007673D01*
X004315Y007708D01*
X004339Y007740D01*
X004367Y007769D01*
X004398Y007795D01*
X004431Y007818D01*
X004467Y007838D01*
X004504Y007854D01*
X004543Y007866D01*
X004582Y007874D01*
X004623Y007878D01*
X004663Y007878D01*
X004704Y007874D01*
X004743Y007866D01*
X004782Y007854D01*
X004819Y007838D01*
X004855Y007818D01*
X004888Y007795D01*
X004919Y007769D01*
X004947Y007740D01*
X004971Y007708D01*
X004993Y007673D01*
X005011Y007637D01*
X005025Y007599D01*
X005035Y007560D01*
X005041Y007519D01*
X005043Y007479D01*
X005041Y007439D01*
X005035Y007398D01*
X005025Y007359D01*
X005011Y007321D01*
X004993Y007285D01*
X004971Y007250D01*
X004947Y007218D01*
X004919Y007189D01*
X004888Y007163D01*
X004855Y007140D01*
X004819Y007120D01*
X004782Y007104D01*
X004743Y007092D01*
X004704Y007084D01*
X004663Y007080D01*
X004623Y007080D01*
X004582Y007084D01*
X004543Y007092D01*
X004504Y007104D01*
X004467Y007120D01*
X004431Y007140D01*
X004398Y007163D01*
X004367Y007189D01*
X004339Y007218D01*
X004315Y007250D01*
X004293Y007285D01*
X004275Y007321D01*
X004261Y007359D01*
X004251Y007398D01*
X004245Y007439D01*
X004243Y007479D01*
M02*
